<?xml version="1.0" encoding="UTF-8" standalone="no"?>
<svg
   width="545.56323"
   height="523.50056"
   viewBox="0 0 545.56323 523.50056"
   version="1.1"
   id="svg98"
   sodipodi:docname="online_banking.svg"
   inkscape:version="1.1.2 (0a00cf5339, 2022-02-04)"
   xmlns:inkscape="http://www.inkscape.org/namespaces/inkscape"
   xmlns:sodipodi="http://sodipodi.sourceforge.net/DTD/sodipodi-0.dtd"
   xmlns="http://www.w3.org/2000/svg"
   xmlns:svg="http://www.w3.org/2000/svg">
  <defs
     id="defs102" />
  <sodipodi:namedview
     id="namedview100"
     pagecolor="#ffffff"
     bordercolor="#666666"
     borderopacity="1.0"
     inkscape:pageshadow="2"
     inkscape:pageopacity="0.0"
     inkscape:pagecheckerboard="0"
     showgrid="false"
     inkscape:zoom="1.4937902"
     inkscape:cx="272.796"
     inkscape:cy="367.18677"
     inkscape:window-width="1860"
     inkscape:window-height="1016"
     inkscape:window-x="0"
     inkscape:window-y="0"
     inkscape:window-maximized="1"
     inkscape:current-layer="svg98" />
  <g
     id="g26">
    <path
       d="M217.91365,522.99361H41.48886c-21.51191,0-39.01333-17.50142-39.01333-39.01374V104.83075c0-21.51191,17.50142-39.01333,39.01333-39.01333H217.91365c21.51151,0,39.01293,17.50142,39.01293,39.01333V483.97987c0,21.51232-17.50142,39.01374-39.01293,39.01374Z"
       fill="#3f3d56"
       id="path6" />
    <path
       d="M256.92674,205.28092c-.91025,0-1.65045,.74021-1.65045,1.65045v52.81453c0,.91025,.74021,1.65045,1.65045,1.65045s1.65045-.74021,1.65045-1.65045v-52.81453c0-.91025-.74021-1.65045-1.65045-1.65045Z"
       fill="#3f3d56"
       id="path8" />
    <path
       d="M253.21342,104.83104V483.97336c0,18.7244-14.57349,34.04062-33.00082,35.22894h-.00826c-.27234,.01652-.54463,.03304-.82523,.0413-.48691,.02473-.97376,.03299-1.46888,.03299,0,0-1.81551-.13206-5.13294-.37962-3.35042-.24756-8.22749-.61892-14.30946-1.10578-1.82372-.14032-3.74651-.29712-5.77659-.46213-4.04358-.33011-8.48331-.69321-13.24488-1.10583-1.89801-.1568-3.86206-.33006-5.86735-.50338-10.24931-.883-21.72824-1.91453-33.83431-3.08634-2.04655-.18984-4.10961-.38788-6.1892-.59419-.54463-.05777-1.09757-.10728-1.65045-.16506-8.63189-.84996-125.71564-23.47767-125.71564-27.90092V104.83104c0-19.50007,15.80312-35.30319,35.30324-35.30319h21.07628c3.36694,0,6.07366,2.62422,6.36252,5.9829,.02473,.22283,.04951,.4456,.09076,.66843,.61066,3.3752,3.70526,5.72708,7.13818,5.72708h107.08205c3.43292,0,6.52752-2.35188,7.13818-5.72708,.04125-.22283,.06603-.4456,.09081-.66843,.28881-3.35868,2.99553-5.9829,6.36247-5.9829h21.07633c19.50007,0,35.30319,15.80312,35.30319,35.30319Z"
       fill="#fff"
       id="path10" />
    <path
       d="M1.65045,165.67002c-.91025,0-1.65045,.74021-1.65045,1.65045v13.20363c0,.91025,.74021,1.65045,1.65045,1.65045s1.65045-.74021,1.65045-1.65045v-13.20363c0-.91025-.74021-1.65045-1.65045-1.65045Z"
       fill="#3f3d56"
       id="path12" />
    <path
       d="M1.65045,205.28092c-.91025,0-1.65045,.74021-1.65045,1.65045v25.58204c0,.91025,.74021,1.65045,1.65045,1.65045s1.65045-.74021,1.65045-1.65045v-25.58204c0-.91025-.74021-1.65045-1.65045-1.65045Z"
       fill="#3f3d56"
       id="path14" />
    <path
       d="M1.65045,241.59091c-.91025,0-1.65045,.74021-1.65045,1.65045v25.58204c0,.91025,.74021,1.65045,1.65045,1.65045s1.65045-.74021,1.65045-1.65045v-25.58204c0-.91025-.74021-1.65045-1.65045-1.65045Z"
       fill="#3f3d56"
       id="path16" />
    <rect
       x="30.12079"
       y="75.30766"
       width="32.18385"
       height="4.12614"
       rx=".31021"
       ry=".31021"
       fill="#e6e6e6"
       id="rect18" />
    <circle
       cx="202.04914"
       cy="76.13289"
       r="3.30091"
       fill="#e6e6e6"
       id="circle20" />
    <circle
       cx="211.12664"
       cy="76.13289"
       r="3.30091"
       fill="#e6e6e6"
       id="circle22" />
    <circle
       cx="220.20414"
       cy="76.13289"
       r="3.30091"
       fill="#e6e6e6"
       id="circle24" />
  </g>
  <path
     d="M199.2886,298.51575H59.2886c-2.20557,0-4-1.79443-4-4s1.79443-4,4-4H199.2886c2.20557,0,4,1.79443,4,4s-1.79443,4-4,4Z"
     fill="#e6e6e6"
     id="path28" />
  <circle
     cx="129.79071"
     cy="395.51575"
     r="58"
     fill="#0077d8"
     id="circle30" />
  <path
     d="M139.00859,376.57804c-4.89484,.20103-10.42855,.53711-14.04647,4.293-3.14318,3.26305-3.83195,8.10532-.64457,11.58907,3.19575,3.49289,8.16452,3.96549,11.84835,6.69033,4.32554,3.1995,3.69197,9.52925-.49392,12.56163-4.93603,3.57581-11.30911,1.90862-15.82167-1.49356-1.15636-.87182-2.27886,1.08088-1.13562,1.94281,4.04299,3.04815,9.31864,4.74505,14.31748,3.2865,4.51149-1.31636,8.00859-4.995,8.3643-9.77982,.16977-2.28366-.47955-4.60146-1.89955-6.40441-1.499-1.90326-3.65809-3.0743-5.84068-4.02726-3.75733-1.64052-10.22682-3.76303-9.1344-9.10397,1.32412-6.47372,9.20386-7.08735,14.48676-7.30431,1.44277-.05925,1.45029-2.30956,0-2.25h0Z"
     fill="#fff"
     id="path32" />
  <path
     d="M129.928,373.51575l-.21574,49.39335c-.00632,1.44801,2.24367,1.44986,2.25,0l.21574-49.39335c.00632-1.44801-2.24367-1.44986-2.25,0h0Z"
     fill="#fff"
     id="path34" />
  <path
     d="M437.08565,0H151.12569c-10.48999,0-19.02002,8.52997-19.02002,19.01996V214.97998c0,10.48999,8.53003,19.02002,19.02002,19.02002H437.08565c10.48999,0,19.02002-8.53003,19.02002-19.02002V19.01996c0-10.48999-8.53003-19.01996-19.02002-19.01996Z"
     fill="#fff"
     id="path36" />
  <circle
     cx="292.79071"
     cy="84.51575"
     r="32"
     fill="#0077d8"
     id="circle38" />
  <path
     d="M298.86106,70.23584c-3.96096,.16324-8.42022,.41435-11.41661,3.36215-2.48204,2.4418-3.34997,6.24304-1.06925,9.11803,2.40131,3.02702,6.39485,3.6014,9.52957,5.53579,1.94826,1.20224,3.23934,3.0236,3.28121,5.36426,.03919,2.19141-.97209,4.23876-2.6628,5.61221-4.1481,3.36971-9.80485,1.97481-13.72914-.97221-.77211-.57983-1.52056,.72186-.75708,1.29521,3.25012,2.44074,7.43474,3.8583,11.47885,2.80815,3.72256-.96665,6.72131-3.89507,7.12458-7.80812,.42504-4.12426-2.28291-6.93249-5.79432-8.54355-3.2096-1.47258-8.83914-3.04159-8.30843-7.61645,.67475-5.81661,7.79544-6.46889,12.32342-6.6555,.96183-.03964,.96686-1.53985,0-1.5h0Z"
     fill="#fff"
     id="path40" />
  <path
     d="M291.97743,67.51575l-.17986,41.15818c-.00422,.96534,1.49578,.96658,1.5,0l.17986-41.15818c.00422-.96534-1.49578-.96658-1.5,0h0Z"
     fill="#fff"
     id="path42" />
  <path
     d="M437.08565,0H151.12569c-10.48999,0-19.02002,8.52997-19.02002,19.01996V214.97998c0,10.48999,8.53003,19.02002,19.02002,19.02002H437.08565c10.48999,0,19.02002-8.53003,19.02002-19.02002V19.01996c0-10.48999-8.53003-19.01996-19.02002-19.01996Zm17.02002,214.97998c0,9.39001-7.63,17.02002-17.02002,17.02002H151.12569c-9.39001,0-17.02002-7.63-17.02002-17.02002V19.01996c0-9.38995,7.63-17.01996,17.02002-17.01996H437.08565c9.39001,0,17.02002,7.63,17.02002,17.01996V214.97998Z"
     fill="#3f3d56"
     id="path44" />
  <g
     id="g52">
    <path
       d="M261.1357,19.34998h-28.06006c-1.40997,0-2.56,1.15002-2.56,2.56,0,1.41998,1.15002,2.57001,2.56,2.57001h28.06006c1.40997,0,2.56-1.15002,2.56-2.57001,0-1.40997-1.15002-2.56-2.56-2.56Z"
       fill="#e6e6e6"
       id="path46" />
    <path
       d="M308.1357,19.34998h-28.06006c-1.40997,0-2.56,1.15002-2.56,2.56,0,1.41998,1.15002,2.57001,2.56,2.57001h28.06006c1.40997,0,2.56-1.15002,2.56-2.57001,0-1.40997-1.15002-2.56-2.56-2.56Z"
       fill="#e6e6e6"
       id="path48" />
    <path
       d="M355.1357,19.34998h-28.06006c-1.40997,0-2.56,1.15002-2.56,2.56,0,1.41998,1.15002,2.57001,2.56,2.57001h28.06006c1.40997,0,2.56-1.15002,2.56-2.57001,0-1.40997-1.15002-2.56-2.56-2.56Z"
       fill="#e6e6e6"
       id="path50" />
  </g>
  <path
     d="M401.41567,134.51575H186.79567c-8.92999,0-16.19,7.26001-16.19,16.19v14.62c0,8.92999,7.26001,16.19,16.19,16.19h214.62c8.92999,0,16.19-7.26001,16.19-16.19v-14.62c0-8.92999-7.26001-16.19-16.19-16.19Z"
     fill="#0077d8"
     id="path54" />
  <path
     d="M73.17926,211.49182l-8.22992-3.89856c3.37555,4.71082,6.28418,12.06805,7.84137,17.92249,2.63654-5.45343,6.88672-12.1261,11.09375-16.11194l-8.69812,2.23767c5.35974-26.26794,25.5191-45.12573,48.60437-45.12573v-2c-24.11316,0-45.13898,19.64758-50.61145,46.97607Z"
     fill="#3f3d56"
     id="path56" />
  <path
     d="M111.05843,251.51575H59.05843c-2.20557,0-4-1.79443-4-4s1.79443-4,4-4h52c2.20557,0,4,1.79443,4,4s-1.79443,4-4,4Z"
     fill="#e6e6e6"
     id="path58" />
  <g
     id="g96">
    <polygon
       points="456.97872 238.488 456.45423 279.32691 446.29273 315.73235 438.16969 312.70231 441.77632 279.33303 441.30222 234.1757 456.97872 238.488"
       fill="#ffb6b6"
       id="polygon60" />
    <ellipse
       cx="440.63007"
       cy="320.57804"
       rx="9.63433"
       ry="5.72038"
       transform="translate(46.30757 696.65636) rotate(-79.68097)"
       fill="#ffb6b6"
       id="ellipse62" />
    <path
       d="M444.64807,189.86134s17.40715,.23962,17.39246,9.48652c-.0083,5.22083-1.1295,52.62318-4.24981,81.41974-2.40625,22.20666-7,28-7,28l-11-25,4.85735-93.90626Z"
       fill="#e6e6e6"
       id="path64" />
    <path
       d="M444.20053,273.29856h-58.7876c4.92749-10.99533,7.95685-21.46701,3.22119-29.79648l55.56641-3.22122c-2.77679,11.24445-3.11621,22.27954,0,33.0177Z"
       fill="#ffb6b6"
       id="path66" />
    <path
       d="M436.95273,175.85608l-23.35398-1.61062-9.66372,12.07965-4.89907,.89074c-7.34381,1.33524-12.5732,7.8888-12.24512,15.3458l1.9056,43.31268,55.82064,4.07026,13.3737-56.40211-16.10619-6.41205-4.83186-11.27434Z"
       fill="#e6e6e6"
       id="path68" />
    <g
       id="g74">
      <path
         d="M294.53066,188.92176c1.65693,1.49058,2.83981,3.2318,3.46456,4.92062l16.68132,13.2027-6.51458,7.75386-16.22013-14.22767c-1.74528-.44324-3.60149-1.436-5.25841-2.92658-3.78524-3.40522-5.0971-8.11837-2.93014-10.52715,2.16696-2.40878,6.99213-1.60101,10.77736,1.8042h0Z"
         fill="#ffb6b6"
         id="path70" />
      <path
         d="M412.46752,200.03661v.00003l-63.91645,43.15944-45.81651-31.88401,6.87858-12.45997,36.05991,20.95662,33.25501-25.53436c11.84186-11.12319,26.6836-8.96705,33.53945,5.76225Z"
         fill="#e6e6e6"
         id="path72" />
    </g>
    <circle
       cx="423.89065"
       cy="153.30238"
       r="17.32595"
       fill="#ffb6b6"
       id="circle76" />
    <path
       d="M447.44074,149.04572v3.36005l-19.54004-5.5-14.64996,3.06995c-.17004-2.22998-.83002-4.41998-1.92999-6.35999,.76544,3.11154,.85107,5.51877,.03998,6.76001l-1.97003,.40997c-.31995-.87-.94-1.62994-1.75-2.08997-.07996-.04999-.17999-.09003-.26996-.06-.14001,.04999-.15002,.22998-.15002,.37,.02002,.73999,.03998,1.47998,.07001,2.21997l-5.65997,1.18005v-3.36005c-5.43011-12.21786,8.88177-22.79028,22.90997-22.89996,6.32983-.0495,12.04999,2.56,16.20001,6.69995,4.14001,4.15002,6.70001,9.87006,6.70001,16.20001Z"
       fill="#2f2e41"
       id="path78" />
    <path
       d="M458.43313,188.44404l-1.4756-.12217c.10507-.48251,.21013-.95895,.30608-1.44147,.81774-4.04957-.9822-9.20467-1.1147-13.09543-.69441,4.11063,.4934,9.16803-.73551,13.07098-.13705,.43368-5.4765,3.23228-5.62268,3.6598-5.90945-2.16102-12.06314-9.06597-19.03157-5.03298-4.12132,2.38522-8.82359,1.33977-13.50285,.24763-1.15832-.27035-1.31925-5.9899-2.46558-6.21465-2.05278-.40246-5.06763,4.79685-7,5l8-31c0-16.86402-1.56207-34.55742,19.80018-28.59431,5.37269,1.49975,10.69018,2.67528,14.65559,7.10965,3.96541,4.44045,6.78871,10.64614,7.7892,17.71303,.60304,4.26333,4.36744,18.73916,.39745,38.69992Z"
       fill="#2f2e41"
       id="path80" />
    <g
       id="g86">
      <polygon
         points="444.63823 500.18039 435.10166 500.40544 429.78582 457.56122 443.85939 457.22818 444.63823 500.18039"
         fill="#ffb7b7"
         id="polygon82" />
      <path
         d="M411.91948,520.07655h0c0,1.61103,1.14328,2.91706,2.55362,2.91706h18.92928s1.86279-7.48795,9.4577-10.71043l.52418,10.71043h9.76495l-1.18313-17.22188s2.61217-9.21376-2.81276-13.92358c-5.42499-4.70982-1.03095-4.05417-1.03095-4.05417l-2.13409-10.65904-14.7559,1.7352-.1085,16.7322-7.16093,16.60827-10.50335,5.18849c-.93485,.46179-1.54002,1.51399-1.54002,2.67743l-.00012,.00003Z"
         fill="#2f2e41"
         id="path84" />
    </g>
    <g
       id="g92">
      <polygon
         points="415.62444 493.19838 406.45713 495.83604 390.44322 455.74315 403.97162 451.84972 415.62444 493.19838"
         fill="#ffb7b7"
         id="polygon88" />
      <path
         d="M389.02547,520.74594h0c.40881,1.5583,1.84609,2.53146,3.21026,2.17358l18.30968-4.80346s-.09831-7.71555,6.43027-12.75982l3.22488,10.22684,9.44532-2.47794-5.5146-16.35794s.1886-9.57504-6.25391-12.75407c-6.44257-3.17902-2.02599-3.65986-2.02599-3.65986l-4.76906-9.7686-13.83258,5.42284,4.14099,16.21205-2.71205,17.88179-8.84293,7.68397c-.78707,.6839-1.10542,1.85522-.81019,2.98058l-.00011,.00006Z"
         fill="#2f2e41"
         id="path90" />
    </g>
    <path
       d="M438.79071,270.7676l6,2c9.38098,17.32587,13.35828,40.3338,12.83124,68.07819l-10.65781,124.61142h-17.43665l-12.76045-138.82181-22.4998,52.1048,16.46225,86.71701-16.46225,1.67839-33.1576-90.1717,23.0919-104.8017,54.58918-1.3946Z"
       fill="#2f2e41"
       id="path94" />
  </g>
</svg>
