<?xml version="1.0" encoding="UTF-8" standalone="no"?>
<svg
   data-name="Layer 1"
   width="844.67538"
   height="595.26155"
   viewBox="0 0 844.67538 595.26155"
   version="1.1"
   id="svg92"
   sodipodi:docname="undraw_questions_re_1fy7.svg"
   inkscape:version="1.1.2 (0a00cf5339, 2022-02-04)"
   xmlns:inkscape="http://www.inkscape.org/namespaces/inkscape"
   xmlns:sodipodi="http://sodipodi.sourceforge.net/DTD/sodipodi-0.dtd"
   xmlns="http://www.w3.org/2000/svg"
   xmlns:svg="http://www.w3.org/2000/svg">
  <defs
     id="defs96" />
  <sodipodi:namedview
     id="namedview94"
     pagecolor="#ffffff"
     bordercolor="#666666"
     borderopacity="1.0"
     inkscape:pageshadow="2"
     inkscape:pageopacity="0.0"
     inkscape:pagecheckerboard="0"
     showgrid="false"
     inkscape:zoom="1.3137083"
     inkscape:cx="422.08762"
     inkscape:cy="95.531103"
     inkscape:window-width="1860"
     inkscape:window-height="1016"
     inkscape:window-x="0"
     inkscape:window-y="0"
     inkscape:window-maximized="1"
     inkscape:current-layer="svg92" />
  <circle
     cx="431.39281"
     cy="548"
     r="46"
     fill="#0077d8"
     id="circle2" />
  <circle
     cx="521.39281"
     cy="126"
     r="24"
     fill="#f2f2f2"
     id="circle12" />
  <circle
     cx="411.39281"
     cy="390"
     r="24"
     fill="#f2f2f2"
     id="circle18" />
  <circle
     cx="583.39281"
     cy="440"
     r="24"
     fill="#f2f2f2"
     id="circle20" />
  <path
     d="M604.12763,220.37264c-71.89185.50782-130.75611,58.92987-131.77735,130.81635-.00946.66369-.01381,5.33048-.01324,11.43422a33.74778,33.74778,0,0,0,33.74387,33.746h.00007a33.76855,33.76855,0,0,0,33.76114-33.79775c-.00343-4.15211-.00551-7.02584-.00551-7.20227a64.00037,64.00037,0,1,1,98.52027,53.8794l.01171.01422s-48.02832,30.91956-62.67089,73.33545l.01245.003a94.00389,94.00389,0,0,0-3.87354,26.76794c0,3.72538.21916,36.32138.64261,62.77767a34.78649,34.78649,0,0,0,34.79009,34.22233h.00007a34.79588,34.79588,0,0,0,34.79384-35.01061c-.14706-24.22912-.22661-52.44168-.22661-54.48939,0-26.04473,25.12525-51.99475,45.76367-68.91741,23.76587-19.48694,40.86792-46.04291,47.73706-75.99909a86.7618,86.7618,0,0,0,2.49927-18.8335A132.75,132.75,0,0,0,604.12763,220.37264Z"
     transform="translate(-177.66231 -152.36922)"
     fill="#0077d8"
     id="path24" />
  <circle
     cx="628.44885"
     cy="242.9959"
     r="30"
     fill="#2f2e41"
     id="circle28" />
  <polygon
     points="573.012 582.129 560.753 582.129 554.92 534.841 573.015 534.841 573.012 582.129"
     fill="#a0616a"
     id="polygon30" />
  <path
     d="M551.99554,578.62562h23.64387a0,0,0,0,1,0,0v14.88687a0,0,0,0,1,0,0H537.10868a0,0,0,0,1,0,0v0A14.88686,14.88686,0,0,1,551.99554,578.62562Z"
     fill="#2f2e41"
     id="path32" />
  <polygon
     points="668.012 582.129 655.753 582.129 649.92 534.841 668.015 534.841 668.012 582.129"
     fill="#a0616a"
     id="polygon34" />
  <path
     d="M646.99554,578.62562h23.64387a0,0,0,0,1,0,0v14.88687a0,0,0,0,1,0,0H632.10868a0,0,0,0,1,0,0v0A14.88686,14.88686,0,0,1,646.99554,578.62562Z"
     fill="#2f2e41"
     id="path36" />
  <circle
     cx="623.88979"
     cy="248.61007"
     r="24.56103"
     fill="#a0616a"
     id="circle38" />
  <path
     d="M816.19123,504.7751l10.98975-25.25a31.38253,31.38253,0,0,0-6.94971-35.6,31.87322,31.87322,0,0,0-3.07031-2.67,30.93522,30.93522,0,0,0-18.98975-6.57,32.179,32.179,0,0,0-13.3999,2.98c-.36035.16-.71.33-1.07031.5-.68994.33-1.36963.69-2.02979,1.06a31.67823,31.67823,0,0,0-15.70019,23.88l-4.8501,40.64c-1.21973,3.19-44.73975,118.39-29.51953,206.34a4.46692,4.46692,0,0,0,3.81982,3.67l15.43018,2.1a4.49661,4.49661,0,0,0,5.00976-3.53l25.89014-123.41a3.50323,3.50323,0,0,1,6.79981-.23l36.58007,129.78a4.47129,4.47129,0,0,0,4.31006,3.28,5.12184,5.12184,0,0,0,.87012-.08l18.84961-3.63a4.471,4.471,0,0,0,3.63037-4.81C850.02131,682.3351,835.3011,527.60512,816.19123,504.7751Z"
     transform="translate(-177.66231 -152.36922)"
     fill="#2f2e41"
     id="path40" />
  <path
     d="M706.10166,421.41909A10.05576,10.05576,0,0,0,716.696,432.6225l13.72894,32.99236,10.385-15.3943-14.62937-28.97a10.11027,10.11027,0,0,0-20.07892.16852Z"
     transform="translate(-177.66231 -152.36922)"
     fill="#a0616a"
     id="path42" />
  <path
     d="M800.19025,537.99553a10.05577,10.05577,0,0,0,8.42651-12.91316l28.88533-21.03846-17.39036-6.51224-24.76387,20.97687a10.11028,10.11028,0,0,0,4.84239,19.487Z"
     transform="translate(-177.66231 -152.36922)"
     fill="#a0616a"
     id="path44" />
  <path
     d="M753.10188,487.61024a17.05692,17.05692,0,0,1-3.29834-.32519,16.30539,16.30539,0,0,1-11.94751-9.61621l-19.23438-23.45313a4.50075,4.50075,0,0,1,1.11109-6.68066l13.68432-8.4707a4.50007,4.50007,0,0,1,6.21533,1.49023l13.5564,22.334L779.15022,443.702A9.72146,9.72146,0,0,1,790.46,459.26356l-25.91186,23.63672A16.25271,16.25271,0,0,1,753.10188,487.61024Z"
     transform="translate(-177.66231 -152.36922)"
     fill="#2f2e41"
     id="path46" />
  <path
     d="M823.252,522.8827c-.03515,0-.07055,0-.10571-.001a4.50783,4.50783,0,0,1-3.31079-1.57031l-12.16626-14.19336a4.49979,4.49979,0,0,1,.92041-6.67286l22.78149-15.1875-20.63842-24.8125a9.721,9.721,0,0,1,14.8872-12.18261l25.0835,24.51269a16.52481,16.52481,0,0,1-3.67529,26.94043l-20.50122,21.75391A4.50742,4.50742,0,0,1,823.252,522.8827Z"
     transform="translate(-177.66231 -152.36922)"
     fill="#2f2e41"
     id="path48" />
  <path
     d="M795.30707,470.58358a4.63212,4.63212,0,0,1-.584-.03711,4.46111,4.46111,0,0,1-3.71045-3.06885l-9.14234-28.02929a3.08255,3.08255,0,0,1,1.594-3.72461l.29663-.14014c.269-.12793.5354-.25439.80737-.37549a32.57412,32.57412,0,0,1,13.603-3.023,31.327,31.327,0,0,1,17.16138,5.15674,3.13007,3.13007,0,0,1,.90136,4.29443L799.08393,468.504A4.45513,4.45513,0,0,1,795.30707,470.58358Z"
     transform="translate(-177.66231 -152.36922)"
     fill="#e6e6e6"
     id="path50" />
  <circle
     cx="652.1011"
     cy="219.78616"
     r="9.81668"
     fill="#2f2e41"
     id="circle52" />
  <path
     d="M796.11115,361.36513h0a26,26,0,0,0-26,25.99994v11.00006h13.5293l6.4707-11,1.94141,11h41.05859l-11-11.00006A26,26,0,0,0,796.11115,361.36513Z"
     transform="translate(-177.66231 -152.36922)"
     fill="#2f2e41"
     id="path54" />
  <path
     d="M834.80883,365.43121a15.15,15.15,0,0,1,16.48081-10.39558c6.256,1.04586,11.20228,6.07455,14.14944,11.69107s4.30806,11.90252,6.28935,17.92793,4.79124,12.08362,9.79306,15.984,12.67721,4.9584,17.58966.94607a20.11809,20.11809,0,0,1-37.47706,7.18124c-2.59206-4.61172-3.26121-10.01684-4.02988-15.251s-1.7674-10.6498-4.86211-14.94043-8.88772-7.09293-13.80374-5.13859Z"
     transform="translate(-177.66231 -152.36922)"
     fill="#2f2e41"
     id="path56" />
  <path
     d="M515.60883,380.40755h0a33.748,33.748,0,0,1-33.74414-33.746c-.00049-6.10376.0039-10.77051.01318-11.4342a131.50724,131.50724,0,0,1,15.35889-59.90875,131.80321,131.80321,0,0,0-25.35889,75.90875c-.00928.66369-.01367,5.33044-.01318,11.4342a33.748,33.748,0,0,0,33.74414,33.746h0A33.77281,33.77281,0,0,0,538.09662,371.817,33.62247,33.62247,0,0,1,515.60883,380.40755Z"
     transform="translate(-177.66231 -152.36922)"
     fill="#3f3d56"
     id="path58" />
  <path
     d="M606.415,291.47848a64.00385,64.00385,0,0,1,55.65918,89.413,63.9972,63.9972,0,1,0-107.42578-66.98523A63.87073,63.87073,0,0,1,606.415,291.47848Z"
     transform="translate(-177.66231 -152.36922)"
     fill="#3f3d56"
     id="path60" />
  <path
     d="M616.79682,590.40755h0a34.78682,34.78682,0,0,1-34.79-34.22235c-.42334-26.45629-.64258-59.0523-.64258-62.77765a94.00389,94.00389,0,0,1,3.87354-26.76794l-.01221-.003a95.069,95.069,0,0,1,5.49414-12.70087,110.04745,110.04745,0,0,0-15.49414,28.70087l.01221.003a94.00389,94.00389,0,0,0-3.87354,26.76794c0,3.72535.21924,36.32136.64258,62.77765a34.78682,34.78682,0,0,0,34.79,34.22235h0a34.80287,34.80287,0,0,0,33.40185-25.04846A34.66005,34.66005,0,0,1,616.79682,590.40755Z"
     transform="translate(-177.66231 -152.36922)"
     fill="#3f3d56"
     id="path62" />
  <polygon
     points="126.541 582.585 138.8 582.584 144.633 535.296 126.538 535.297 126.541 582.585"
     fill="#ffb8b8"
     id="polygon64" />
  <path
     d="M301.576,731.45065H340.1067a0,0,0,0,1,0,0v14.88687a0,0,0,0,1,0,0H316.46283A14.88686,14.88686,0,0,1,301.576,731.45066v0A0,0,0,0,1,301.576,731.45065Z"
     transform="translate(464.05409 1325.40429) rotate(179.99738)"
     fill="#2f2e41"
     id="path66" />
  <polygon
     points="82.541 582.585 94.8 582.584 100.633 535.296 82.538 535.297 82.541 582.585"
     fill="#ffb8b8"
     id="polygon68" />
  <path
     d="M257.576,731.45065H296.1067a0,0,0,0,1,0,0v14.88687a0,0,0,0,1,0,0H272.46283A14.88686,14.88686,0,0,1,257.576,731.45066v0A0,0,0,0,1,257.576,731.45065Z"
     transform="translate(376.05409 1325.4063) rotate(179.99738)"
     fill="#2f2e41"
     id="path70" />
  <path
     d="M270.91659,720.41068l-11.975-.62988a4.6735,4.6735,0,0,1-4.41851-4.967l14.31268-158.46594,65.911,17.78562,6.35023-1.73241L321.23868,712.68583a4.69622,4.69622,0,0,1-4.35816,3.94458l-12.9089.60147a4.67413,4.67413,0,0,1-4.93149-4.79557l2.339-84.19641a1.55813,1.55813,0,0,0-3.0832-.36007L275.739,716.69228a4.64568,4.64568,0,0,1-4.56913,3.7255C271.086,720.41778,271.00154,720.41575,270.91659,720.41068Z"
     transform="translate(-177.66231 -152.36922)"
     fill="#2f2e41"
     id="path72" />
  <circle
     cx="128.74202"
     cy="249.75879"
     r="24.56103"
     fill="#ffb8b8"
     id="circle74" />
  <path
     d="M265.51193,474.28693l2.70056,58.26748.97625,21.19852a4.64221,4.64221,0,0,0,3.07432,4.17534l63.336,22.94342a4.47742,4.47742,0,0,0,1.59954.28045,4.64358,4.64358,0,0,0,4.66371-4.7881L339.2657,471.5969A36.93044,36.93044,0,0,0,308.522,435.91974c-.61263-.09345-1.23592-.18695-1.8592-.27006a36.24947,36.24947,0,0,0-29.165,9.44122,37.23612,37.23612,0,0,0-11.9859,29.196Z"
     transform="translate(-177.66231 -152.36922)"
     fill="#ccc"
     id="path76" />
  <path
     d="M365.85452,569.24512a10.06355,10.06355,0,0,1-5.36877-15.22659l-21.478-28.56,18.53424-1.14707,17.55439,27.29693a10.111,10.111,0,0,1-9.24184,17.63673Z"
     transform="translate(-177.66231 -152.36922)"
     fill="#ffb8b8"
     id="path78" />
  <path
     d="M350.75332,548.85022a4.64437,4.64437,0,0,1-2.54106-2.51848L315.854,469.2374a12.4634,12.4634,0,1,1,22.98438-9.64693l32.3582,77.09534a4.679,4.679,0,0,1-2.50048,6.11822l-14.36542,6.029a4.64165,4.64165,0,0,1-3.57741.01724Z"
     transform="translate(-177.66231 -152.36922)"
     fill="#ccc"
     id="path80" />
  <path
     d="M298.50776,546.13086,329.587,486.62205a4.87826,4.87826,0,0,1,6.57494-2.06344l45.11152,23.5601a4.87826,4.87826,0,0,1,2.06343,6.57494l-31.07927,59.50881a4.87827,4.87827,0,0,1-6.57494,2.06344L300.5712,552.7058A4.87826,4.87826,0,0,1,298.50776,546.13086Z"
     transform="translate(-177.66231 -152.36922)"
     fill="#3f3d56"
     id="path82" />
  <path
     d="M319.35062,518.94278a10.06358,10.06358,0,0,0-15.517-4.46026l-29.77845-19.75406-.05061,18.56963L302.2904,529.21a10.111,10.111,0,0,0,17.06022-10.26718Z"
     transform="translate(-177.66231 -152.36922)"
     fill="#ffb8b8"
     id="path84" />
  <path
     d="M281.7006,523.11883l-24.33677-19.27776a17.16326,17.16326,0,0,1-7.82343-27.13518l22.09715-28.95951a10.096,10.096,0,0,1,17.1296,10.28435l-17.48384,28.6,25.694,12.18686a4.67363,4.67363,0,0,1,1.94814,6.71958l-10.37175,16.41406a4.682,4.682,0,0,1-3.16671,2.1111c-.02565.00448-.05149.00846-.0773.0123A4.69555,4.69555,0,0,1,281.7006,523.11883Z"
     transform="translate(-177.66231 -152.36922)"
     fill="#ccc"
     id="path86" />
  <path
     d="M287.84537,418.57447a2.13479,2.13479,0,0,1,1.85636-2.81905,4.93046,4.93046,0,0,1,3.4761,1.71495,13.8334,13.8334,0,0,0,3.07115,2.63711c1.18812.59889,2.79953.51354,3.47685-.62824.63605-1.07221.20023-2.508-.18482-3.75347a36.90711,36.90711,0,0,1-1.62991-9.77c-.11092-3.70032.41115-7.562,2.45972-10.44807,2.64387-3.72475,7.37142-5.13883,11.84544-5.0363s8.87547,1.48362,13.30713,2.35665c1.52992.30139,3.32826.4555,4.35153-.73025,1.08805-1.26082.68844-3.3014.22563-5.00376-1.20094-4.41743-2.475-8.98461-5.26525-12.55224a18.89839,18.89839,0,0,0-12.06081-6.79014,28.93848,28.93848,0,0,0-13.46236,1.52838,36.09628,36.09628,0,0,0-17.68285,12.3186,29.23592,29.23592,0,0,0-5.57809,21.60019,26.66712,26.66712,0,0,0,9.88579,16.85462Z"
     transform="translate(-177.66231 -152.36922)"
     fill="#2f2e41"
     id="path88" />
  <path
     d="M598.92043,735.14922a45.99375,45.99375,0,0,1-17.07033-71.4888,45.99715,45.99715,0,1,0,62.56892,66.464A45.96919,45.96919,0,0,1,598.92043,735.14922Z"
     transform="translate(-177.66231 -152.36922)"
     fill="#3f3d56"
     id="path90" />
</svg>
